<svg width="15" height="15" viewBox="0 0 15 15" fill="none" xmlns="http://www.w3.org/2000/svg">
<path d="M13.2023 5.63925C13.6196 6.92131 13.5929 8.30657 13.1264 9.57158C12.66 10.8366 11.781 11.9076 10.6313 12.6119C9.4816 13.3161 8.12817 13.6126 6.78933 13.4534C5.4505 13.2942 4.20431 12.6887 3.25178 11.7345C2.29924 10.7803 1.69591 9.53305 1.53908 8.19394C1.38226 6.85482 1.68109 5.50192 2.38737 4.35344C3.09366 3.20497 4.16622 2.3279 5.43205 1.86368C6.69788 1.39947 8.08319 1.37519 9.36451 1.79475L8.57851 2.58C8.53501 2.62275 8.49601 2.67 8.46001 2.71875C7.43408 2.51168 6.36874 2.64028 5.42155 3.08554C4.47436 3.5308 3.69562 4.26907 3.2005 5.19117C2.70537 6.11327 2.52015 7.17024 2.67223 8.20575C2.82431 9.24127 3.30562 10.2003 4.04496 10.9411C4.78431 11.6819 5.74244 12.1651 6.77766 12.3192C7.81287 12.4734 8.8702 12.2902 9.79327 11.7969C10.7163 11.3036 11.4561 10.5263 11.9033 9.57999C12.3504 8.63368 12.4811 7.56859 12.276 6.54225C12.3273 6.50585 12.3755 6.46521 12.42 6.42075L13.2015 5.63925H13.2023ZM11.1735 6.75C11.3345 7.53987 11.2367 8.3606 10.8946 9.09052C10.5525 9.82043 9.98431 10.4207 9.27424 10.8023C8.56417 11.1839 7.75003 11.3265 6.95253 11.209C6.15503 11.0915 5.41661 10.7202 4.84675 10.15C4.27689 9.57987 3.90592 8.84126 3.78884 8.04369C3.67176 7.24613 3.81481 6.43207 4.19677 5.72219C4.57872 5.01232 5.17926 4.44442 5.90936 4.10269C6.63945 3.76095 7.46023 3.66358 8.25001 3.825V4.9845C7.69025 4.8174 7.09075 4.84179 6.54642 5.05381C6.00208 5.26582 5.54402 5.65335 5.24475 6.15504C4.94549 6.65673 4.82212 7.2439 4.89417 7.82361C4.96623 8.40332 5.2296 8.94242 5.64258 9.35558C6.05556 9.76873 6.59455 10.0323 7.17423 10.1046C7.7539 10.1769 8.34113 10.0538 8.84295 9.75476C9.34476 9.45571 9.73248 8.99781 9.94473 8.45357C10.157 7.90932 10.1816 7.30983 10.0148 6.75H11.1735ZM7.49851 8.625C7.67104 8.62509 7.84128 8.5855 7.99606 8.50929C8.15085 8.43307 8.28603 8.32228 8.39115 8.18547C8.49627 8.04867 8.56852 7.88952 8.60231 7.72033C8.6361 7.55114 8.63052 7.37644 8.58601 7.20975L9.77251 6.0225L9.79501 6H11.625C11.6743 6.00009 11.7231 5.99047 11.7687 5.97168C11.8142 5.95289 11.8556 5.9253 11.8905 5.8905L13.3905 4.3905C13.4431 4.33806 13.4789 4.27118 13.4934 4.19835C13.508 4.12552 13.5005 4.05001 13.4721 3.98141C13.4437 3.9128 13.3955 3.85418 13.3337 3.81299C13.2719 3.77179 13.1993 3.74987 13.125 3.75H11.25V1.875C11.25 1.80089 11.228 1.72845 11.1869 1.66682C11.1457 1.60519 11.0872 1.55713 11.0187 1.52873C10.9503 1.50032 10.875 1.49283 10.8023 1.50721C10.7296 1.52158 10.6627 1.55718 10.6103 1.6095L9.11026 3.1095C9.07532 3.14433 9.0476 3.18571 9.02868 3.23127C9.00976 3.27683 9.00002 3.32567 9.00001 3.375V5.205C8.9923 5.21229 8.9848 5.2198 8.97751 5.2275L7.79101 6.4125C7.62418 6.36774 7.44929 6.36196 7.27988 6.39562C7.11046 6.42928 6.95106 6.50148 6.81402 6.60662C6.67698 6.71176 6.56597 6.84702 6.48958 7.00194C6.41319 7.15686 6.37348 7.32728 6.37351 7.5C6.37351 7.79837 6.49204 8.08452 6.70301 8.2955C6.91399 8.50648 7.20014 8.625 7.49851 8.625Z" fill="#555555"/>
</svg>
